<svg xmlns="http://www.w3.org/2000/svg" viewBox="0 0 240 60" width="240" height="60" fill="none">
  <defs>
    <linearGradient id="shiftGrad" x1="0%" y1="0%" x2="100%" y2="100%">
      <stop offset="0%" stop-color="#2563eb" />
      <stop offset="100%" stop-color="#1d4ed8" />
    </linearGradient>
    <linearGradient id="accentGrad" x1="0%" y1="0%" x2="100%" y2="100%">
      <stop offset="0%" stop-color="#f97316" />
      <stop offset="100%" stop-color="#ea580c" />
    </linearGradient>
  </defs>
  
  <!-- Icon Mark: Modern Moving Truck & Box -->
  <g transform="translate(6, 8)">
    <rect x="0" y="8" width="30" height="26" rx="4" fill="url(#shiftGrad)" />
    <!-- Truck Cab -->
    <path d="M30 16 H39 L46 26 V34 H30 V16 Z" fill="url(#shiftGrad)" />
    <!-- Window -->
    <path d="M32 19 H38 L42 26 H32 V19 Z" fill="#93c5fd" />
    <!-- Moving Box Icon inside trailer -->
    <rect x="7" y="14" width="16" height="14" rx="2" fill="#ffffff" fill-opacity="0.9" />
    <path d="M7 20 H23 M15 14 V28" stroke="url(#accentGrad)" stroke-width="2" stroke-linecap="round" />
    <!-- Wheels -->
    <circle cx="10" cy="36" r="6" fill="#0f172a" stroke="#ffffff" stroke-width="2" />
    <circle cx="10" cy="36" r="2.5" fill="#f97316" />
    <circle cx="38" cy="36" r="6" fill="#0f172a" stroke="#ffffff" stroke-width="2" />
    <circle cx="38" cy="36" r="2.5" fill="#f97316" />
    <!-- Speed motion streaks -->
    <path d="M-4 14 H-1 M-6 20 H-2 M-4 26 H-1" stroke="#f97316" stroke-width="2" stroke-linecap="round" />
  </g>

  <!-- Typography -->
  <text x="66" y="32" font-family="'Plus Jakarta Sans', system-ui, -apple-system, sans-serif" font-weight="800" font-size="24" fill="#0f172a">Shift<tspan fill="#f97316">Pro</tspan></text>
  <text x="66" y="46" font-family="'Inter', system-ui, -apple-system, sans-serif" font-weight="600" font-size="10" fill="#64748b" letter-spacing="1.5">RELOCATION &amp; PACKING</text>
</svg>
